<?xml version="1.0" encoding="UTF-8" standalone="no"?>
<svg xmlns="http://www.w3.org/2000/svg" width="48" height="48" baseProfile="tiny" version="1.1" xmlns:xlink="http://www.w3.org/1999/xlink" viewBox="0 0 48 48">
 <g id="g3347">
  <path id="path3361" fill="#d8c7b2" d="M7.593,42.75c-1.385-1.24-2.769-3.37-3.077-4.75-0.7-3.13,2.52-8.6,5.984-10.18,2.21-1.01,2.99-0.76,6.51,2.06,4.5,3.62,5.25,2.77,1.49-1.7-3.23-3.83-3.15-5.98,0.39-10.87,8.25-11.385,18.95-13.257,23.42-4.1,1.763,3.607,1.759,3.835-0.1312,8.108-1.07,2.418-3.461,5.534-5.314,6.924-4.225,3.168-11.295,6.758-13.325,6.758-0.85,0-1.54,0.82-1.54,1.83,0,2.9-6.69,8.17-10.38,8.17-0.83,0-2.642-1.01-4.027-2.25z"/>
  <path id="path3359" fill="#c9b092" d="M8.694,41.97c-1.417-1.11-2.851-2.89-3.186-3.95-0.833-2.62,2.041-7.86,5.072-9.24,2.23-1.01,2.88-0.74,6.45,2.75,2.18,2.13,3.97,4.67,3.97,5.63,0,1.013-1.834,2.83-4.338,4.297-5.207,3.051-4.78,3.024-7.968,0.5161zm14.506-9.17c-0.66-0.66-1.2-2.11-1.2-3.21,0-1.107-1.232-2.995-2.738-4.196l-2.738-2.183,3.9-5.662c3.991-5.795,6.709-7.796,12.19-8.976,2.499-0.5376,3.734-0.1485,6.25,1.968,3.66,3.08,3.972,5.902,1.242,11.25-2.218,4.346-3.971,5.992-10.19,9.571-5.306,3.048-5.146,3.008-6.716,1.438z"/>
  <path id="path3357" fill="#c2a178" d="M8,41c-2.571-2.57-2.544-6.04,0.073-9.37,2.787-3.53,6.117-3.38,9.337,0.45,3.42,4.06,3.26,5.96-0.73,8.67-4.07,2.77-6.1,2.83-8.68,0.25zm14.7-9.341c-0.283-0.7374-0.1164-1.975,0.3702-2.75,0.4866-0.7751,0.6202-2.258,0.2969-3.295-0.5028-1.613-0.2104-1.791,2.023-1.231,2.3,0.577,2.61,0.357,2.61-1.863,0-1.99-0.5-2.52-2.38-2.52-1.347,0-3.04,0.9754-3.905,2.25-1.081,1.593-1.847,1.943-2.624,1.198-0.7892-0.7565-0.2723-2.352,1.842-5.686,3.431-5.411,6.447-7.626,11.5-8.445,2.936-0.4764,4.124-0.1416,6.106,1.72,2.31,2.17,3.24,5.85,1.834,7.256-0.3447,0.3447-1.897-0.03027-3.45-0.8333-3.623-1.88-3.923-1.84-3.923,0.43,0,1.041-0.7502,2.181-1.667,2.533-1.174,0.4506-1.354,0.9532-0.6074,1.7,0.698,0.698,1.694,0.7329,2.917,0.1023,2.407-1.235,4.357-0.505,4.357,1.645,0,1.861-10.45,9.119-13.14,9.128-0.9037,0.0028-1.875-0.5982-2.157-1.336z"/>
  <path id="path3355" fill="#b29167" d="M7.655,40.17c-0.91-1-1.655-2.62-1.655-3.59,0-2.65,3.88-7.58,5.96-7.58,1.79,0,8.04,6.19,8.04,7.95,0,1.32-6.44,5.05-8.71,5.05-1.09,0-2.725-0.82-3.635-1.83zm15.72-8.646c-0.9913-2.583,4.372-6.652,10.56-8.011,4.966-1.091,3.769,1.595-2.572,5.771-6.264,4.125-7.168,4.379-7.989,2.239zm-2.335-12.704c0.09-3.6,8.6-9.82,13.43-9.82,2.22,0,5.53,3.65,5.53,6.11,0,1.598-0.4228,1.943-1.75,1.43-0.9625-0.3724-3.058-0.9409-4.658-1.264-2.571-0.5185-2.845-0.3458-2.364,1.491,0.4698,1.796,0.119,2.058-2.592,1.931-1.725-0.08059-4.148,0.2103-5.386,0.6464-1.601,0.5641-2.24,0.4128-2.214-0.5244z"/>
  <path id="path3353" fill="#9f7849" d="M8.128,39.44c-1.138-1.45-1.758-3.3-1.423-4.25,0.766-2.18,4.375-6.19,5.565-6.19,1.08,0,6.73,5.85,6.73,6.97,0,0.79-7.15,6.03-8.23,6.03-0.34,0-1.532-1.15-2.642-2.56zm16.082-8.58c0.6185-1.856,6.383-5.092,8.356-4.692,1.243,0.2521,0.9549,0.8157-1.245,2.437-3.846,2.835-7.713,4.061-7.111,2.255zm-1.21-13.89c0-3.95,10.4-8.543,13.51-5.96,2.47,2.05,1.7,2.99-2.46,2.99-2.253,0-4.294,0.5796-4.75,1.349-1.02,1.721-6.3,3.081-6.3,1.621z"/>
  <path id="path3351" fill="#92662e" d="M7.667,39.33c-2.169-2.17,1.452-9.33,4.713-9.33,1.5,0,4.62,3.16,4.62,4.67,0,0.5559-1.125,1.523-2.5,2.15-1.375,0.6265-2.5,1.599-2.5,2.161,0,1.133-3.286,1.402-4.333,0.3548zm17.933-24.17c-0.346-0.5599-0.1419-1.319,0.4537-1.687,1.537-0.9502,2.529,0.3514,1.246,1.635-0.7182,0.7182-1.278,0.7354-1.7,0.05243zm6.4-3.16c-1.21-0.78-1.07-0.97,0.75-0.98,1.24-0.01,2.25,0.43,2.25,0.98,0,1.253-1.061,1.253-3,0z"/>
  <path id="path3349" fill="#77470e" d="M8,36.43c0-2.7,1.995-5.43,3.98-5.43,3.233,0,3.418,2.107,0.4013,4.575-3.409,2.785-4.381,2.975-4.381,0.855z"/>
 </g>
</svg>